<svg xmlns="http://www.w3.org/2000/svg" viewBox="0 0 96 100"><path fill="currentColor" stroke="currentColor" stroke-width="1" d="M81.243 15.551a8.24 8.24 0 0 0 4.167 1.116 8.333 8.333 0 1 0-7.195-12.539l-.021.039a8.24 8.24 0 0 0-1.116 4.167 8.33 8.33 0 0 0 4.127 7.195l.039.021zM62.952 71.316a6.15 6.15 0 0 0-2.54-.54 6.25 6.25 0 0 0-5.694 3.676l-.016.039c-3.646 7.733-11.371 12.992-20.326 13.008h-.002C22.299 87.485 12.514 77.7 12.5 65.626v-.001c0-11.857 10.494-21.874 22.916-21.874a6.25 6.25 0 1 0 0-12.5C16.219 31.251 0 46.993 0 65.625.114 84.634 15.55 100 34.575 100c13.974 0 26.012-8.29 31.464-20.221l.088-.216a6.2 6.2 0 0 0 .537-2.535 6.25 6.25 0 0 0-3.674-5.697l-.039-.016z"/><path fill="currentColor" stroke="currentColor" stroke-width="1" d="M94.167 49.928a6.26 6.26 0 0 0-5.001-1.997l.018-.001-18.374 1.148 11.535-16.764c.109-.176.213-.382.302-.596l.011-.029c.418-.728.665-1.6.665-2.529 0-.974-.27-1.884-.74-2.66l.013.023a5.6 5.6 0 0 0-1.403-1.552l-.014-.01-7.292-5.062L57.221 8.295a5.16 5.16 0 0 0-3.072-1.005 5.18 5.18 0 0 0-3.678 1.526l-9.375 9.375a5.215 5.215 0 0 0 7.375 7.375l6.229-6.229 8.854 6.104-14.583 24.687a8.24 8.24 0 0 0-1.044 4.039 8.335 8.335 0 0 0 8.335 8.335l.113-.023c.087-.002.169.016.256.011L82.3 60.886l-3.08 21.565a6.25 6.25 0 0 0 12.37 1.802l.004-.034 4.167-29.166a6.22 6.22 0 0 0-1.599-5.128l.004.004z"/></svg>