<svg xmlns="http://www.w3.org/2000/svg" xml:space="preserve" viewBox="0 0 129.593 100.001"><g fill="currentColor" stroke="currentColor" stroke-width="1"><path d="M27.083 20.833C11.375 20.833 0 31.354 0 45.833a4.167 4.167 0 0 0 8.334 0c0-6.724 4.305-12.443 10.309-14.55l.108-.033-8.333 39.583a1.917 1.917 0 0 0 2.091 2.083l-.008.001h4.167v22.917a4.167 4.167 0 0 0 8.334 0V72.917h4.167v22.917a4.167 4.167 0 0 0 8.334 0V72.917h4.167a1.917 1.917 0 0 0 2.083-2.091l.001.008-8.333-39.583c6.064 2.208 10.332 7.886 10.417 14.573v.01a4.167 4.167 0 0 0 8.334 0c0-14.479-11.396-25-27.083-25zM35.396 8.333a8.333 8.333 0 1 1-16.666 0 8.333 8.333 0 0 1 16.666 0z"/></g><g fill="currentColor" stroke="currentColor" stroke-width="1"><path d="M102.515 20.833c-15.682 0-27.065 10.514-27.065 25a4.167 4.167 0 0 0 8.334 0l-.004-.342c0-6.078 3.317-11.382 8.24-14.199l.08-.042v64.583a4.167 4.167 0 0 0 8.333 0v-31.25h4.167v31.25a4.167 4.167 0 0 0 8.334 0V31.247c5.008 2.858 8.33 8.165 8.33 14.246q0 .179-.005.358v-.018a4.167 4.167 0 0 0 8.334 0c0-14.486-11.387-25-27.075-25zM110.848 8.333a8.333 8.333 0 1 1-16.666 0 8.333 8.333 0 0 1 16.666 0z"/></g><g transform="translate(-.582 .582)"><rect width="12.609" height="3.104" x="59.675" y="44.52" rx="1" ry=".604" stroke-width=".777029"/><rect width="12.609" height="3.104" x="59.675" y="50.194" rx="1" ry=".604" stroke-width=".777029"/></g></svg>