<svg xmlns="http://www.w3.org/2000/svg" viewBox="0 0 77 100"><path fill="currentColor" stroke="currentColor" stroke-width="1" d="M26.046 14.581a3.125 3.125 0 0 0 3.125-3.125V3.125a3.125 3.125 0 1 0-6.25 0v8.331a3.125 3.125 0 0 0 3.125 3.125zM11.456 22.907H3.125a3.125 3.125 0 1 0 0 6.25h8.331a3.125 3.125 0 1 0 0-6.25zM11.582 7.163a3.125 3.125 0 1 0-4.42 4.42l6.256 6.256a3.125 3.125 0 1 0 4.419-4.419zM22.917 45.833a4.167 4.167 0 0 0 8.334 0c.002-6.723 4.306-12.441 10.309-14.55l.108-.033-8.333 39.542a1.917 1.917 0 0 0 2.07 2.125h-.007 4.167v22.917a4.167 4.167 0 0 0 8.334 0v-75c-14.604.896-24.979 11.167-24.979 25zM41.646 8.333v.033a8.64 8.64 0 0 0 6.189 8.285l.061.015V-.001c-3.639 1.071-6.25 4.38-6.25 8.3v.035-.002zM52.104 20.833v75a4.167 4.167 0 0 0 8.334 0V31.25c5.001 2.865 8.316 8.171 8.316 14.25q0 .176-.004.35v-.017a4.167 4.167 0 0 0 8.334 0c0-13.833-10.396-24.104-24.979-25zM58.354 8.333V8.3A8.64 8.64 0 0 0 52.165.015L52.104 0v16.667c3.639-1.071 6.25-4.38 6.25-8.3v-.035.002z"/></svg>