<svg viewBox="0 0 655.97 130.2" xmlns="http://www.w3.org/2000/svg"><g fill="#166fb4"><path d="m181.47 10.2v13.2c0 2.7 1.3 6.1 5.4 6.1s5.4-3.5 5.4-6.1v-13.2h2.9v13.7a8.4 8.4 0 0 1 -16.7 1.9 5.44 5.44 0 0 1 0-1.8v-13.8z"/><path d="m200.47 17.3h2.7v2.2h.1a5.09 5.09 0 0 1 4.73-2.5c2.8 0 5.2 1.7 5.2 5.5v9.3h-2.7v-8.6c0-2.7-1.6-3.7-3.3-3.7s-4 1.5-4 4.8v7.4h-2.7z"/><path d="m219.67 10.1a2 2 0 1 1 -2 2 2 2 0 0 1 2-2zm-1.4 7.2h2.73v14.5h-2.7z"/><path d="m234.07 19.7h-3.9v6.5c0 1.6 0 3.3 2.1 3.3a4.45 4.45 0 0 0 2-.4v2.5a6.92 6.92 0 0 1 -2.5.5c-4.2 0-4.3-2.6-4.3-4.9v-7.5h-3.2v-2.4h3.2v-4h2.7v4.1h3.9z"/><path d="m239.77 25.5c0 2.5 2.4 4.2 4.9 4.2a5.08 5.08 0 0 0 3.9-2.2l2.1 1.6a7.61 7.61 0 0 1 -6.4 3c-4.6 0-7.4-3.3-7.4-7.6a7.41 7.41 0 0 1 7-7.6h.5c5.1 0 7.1 3.9 7.1 7.6v1zm8.6-2.2c-.1-2.4-1.4-4.2-4.2-4.2a4.49 4.49 0 0 0 -4.5 4.2z"/><path d="m270 31.8h-2.8v-2.1a6.16 6.16 0 0 1 -5 2.5c-4.5 0-7.4-3.3-7.4-7.6s2.9-7.6 7.4-7.6a5.79 5.79 0 0 1 5 2.4v-10.7h2.8zm-2.8-7.2c0-2.9-1.8-5-4.7-5s-4.7 2.1-4.7 5 1.8 5 4.7 5 4.67-2.1 4.67-5z"/><path d="m290 10.2h3.8l11.9 17.7h.1v-17.7h2.9v21.6h-3.7l-12-17.8h-.1v17.8h-2.9z"/><path d="m314.07 19.1a8.59 8.59 0 0 1 5.7-2.1c4.3 0 6 2.3 6 4.8v7.4a22.52 22.52 0 0 0 .1 2.6h-2.4a16.2 16.2 0 0 1 -.1-2.2h-.1a5.63 5.63 0 0 1 -5 2.6c-2.7 0-5-1.5-5-4.3s3.6-5 7.9-5h2v-.6a3 3 0 0 0 -3-3h-.4a6.17 6.17 0 0 0 -4.1 1.6zm7.7 5.7c-2.6 0-5.7.5-5.7 2.8s1.2 2.3 3.1 2.3a3.9 3.9 0 0 0 4.1-3.6v-1.5z"/><path d="m338.57 19.7h-3.9v6.5c0 1.6 0 3.3 2.1 3.3a4.45 4.45 0 0 0 2-.4v2.5a6.92 6.92 0 0 1 -2.5.5c-4.2 0-4.3-2.6-4.3-4.9v-7.5h-3.2v-2.4h3.23v-4h2.7v4.1h3.9z"/><path d="m343.87 10.1a2 2 0 1 1 -2 2 2 2 0 0 1 2-2zm-1.4 7.2h2.7v14.5h-2.7z"/><path d="m357.17 17a7.65 7.65 0 1 1 -.1 0zm0 12.6a4.61 4.61 0 0 0 4.8-4.41v-.59c0-2.9-1.8-5-4.8-5s-4.7 2.1-4.7 5 1.8 5 4.7 5z"/><path d="m369.07 17.3h2.8v2.2h.1a5.06 5.06 0 0 1 4.7-2.6c2.8 0 5.2 1.7 5.2 5.5v9.3h-2.7v-8.5c0-2.7-1.6-3.7-3.3-3.7s-4 1.5-4 4.8v7.4h-2.8z"/><path d="m394.47 20.9a3.76 3.76 0 0 0 -3-1.4c-1.3 0-2.4.6-2.4 1.6s2.5 2 3.7 2.2 4.2 1.5 4.2 4.2-3 4.5-5.8 4.5a6.2 6.2 0 0 1 -5.6-2.6l2.1-1.7a4.74 4.74 0 0 0 3.5 1.7c1.4 0 2.9-.6 2.9-1.8s-2.3-1.9-3.5-2.2-4.4-1.3-4.4-4.1 2.8-4.3 5.5-4.3a5.62 5.62 0 0 1 4.9 2.4z"/><path d="m418.67 10.3h2.2v107.5h-2.2z"/><path d="m87.77 67.7a.92.92 0 0 0 -1.1.2l-.9.7s-.3.3-.1.5.7-.3.7-.3l.9-.5.5-.3s.6-.2-.1-.5m23.33-11.5a34 34 0 0 1 -.5 4.5c.2.5 1.2 1.2 1.3 1.7s-.9 1.3-1.2.8l-.5-.4a33.5 33.5 0 0 1 -7.9 14.4l2.7 2.7a2.18 2.18 0 0 0 .1-.8c-.1-.9.2-1.2.4-1.2a2 2 0 0 1 1.8 1.2c.1.4.2 0 .4.7a2.45 2.45 0 0 0 .1 1.2l.3.7a2.18 2.18 0 0 1 -.1.8 40.56 40.56 0 0 0 11-26.2zm-10 32a37.94 37.94 0 0 0 4.5-3.5l-.2-.2a.86.86 0 0 1 -.7-.1 3.64 3.64 0 0 1 -.4-.9l-4.1-4.1-.9.9v1c2.6 1.2 3.2 2.3 3.1 2.8s-1.8 2.1-1.8 2.5.7.9.6 1.3zm-21.9.2v7a41.73 41.73 0 0 0 6.2-.7 4.55 4.55 0 0 0 -1.9-1.1 4.44 4.44 0 0 1 -1.2-2.1c-.4-1.1.8-1.2.5-2s-2.8-.5-2.8-.5.27.5-.83-.6zm-3-.6a33.6 33.6 0 0 1 -20.5-8l.9.9c1.6 1.4 1.8 2.2 1.7 2.9s-3.5.6-3.5.6h-.1a8 8 0 0 1 -3.7.8 4.4 4.4 0 0 1 -.9-.5l-.3.3a41.58 41.58 0 0 0 26.4 10.6zm-31.83-28.7c-.1-.9-.2-1.9-.3-2.8h-7.8a40.41 40.41 0 0 0 2 10.9h.1c.3-.2 0-.3.2-.8s.5 0 .6-.3-.1-.4-.1-.7.4-.4.4-.6-.2.2-.3-.5a3.9 3.9 0 0 1 .3-1.5l.6-1.3c.3-.7 1.7-1.1 2.1-1.6s.4-.9 1.2-1.1a2 2 0 0 1 1 .3zm-.27-5.8a33.11 33.11 0 0 1 9-21.1l-5.4-5.5a40.06 40.06 0 0 0 -11.4 26.6zm11.1-23.2a33.29 33.29 0 0 1 21-8.5v-7.6a41 41 0 0 0 -26.4 10.7zm24-8.5a34.24 34.24 0 0 1 17 5.5l-.5-1c-.1-.2.4-.4.4-.4s-1.1-1.7-.8-2 1.2.5 1.7 1.3 1.1 1.5 1.5 1.6 1.2 0 1.4.8a10.83 10.83 0 0 1 .7 1.9v.4l2.3-2.2a2.52 2.52 0 0 0 -1.3-1.4l-1.6.5s-.6.3-.8-.1a5.66 5.66 0 0 1 -.1-1.3s-.6-.4-.6-.7.3-1.4.1-1.8a2.83 2.83 0 0 0 -.8-.7 14 14 0 0 0 -.5-1.9 13.53 13.53 0 0 0 -1.6-1.7v-.3a41.48 41.48 0 0 0 -16.5-4.1zm23.2 10.8.6.7 1.7 2.1.8 1.1.8-.5c.5-.3.8 0 .9.6s-1 .6-.6 1.2 1.1-.1 1.2 0a.74.74 0 0 1 -.1.9c-.2.3-.5.4-.5.6l.3.6c.4.2 1.2-.2 1.2.5s.6 1.4.7 2.1a2 2 0 0 1 -.3 1.1 24.23 24.23 0 0 1 .8 2.5.85.85 0 0 1 .7-.2v1.2a5.68 5.68 0 0 1 -.2 1.3l.2 1.2c.1.5.2 1.1.3 1.6h-.1a13.34 13.34 0 0 1 .1 2h7.8a40.8 40.8 0 0 0 -3.3-14.6h-.4a2.14 2.14 0 0 1 -1.1.5c-.5 0-.8-.6-.8-.6s-2.2-2.9-2.5-3.1a1.85 1.85 0 0 0 -1.2-.5c-.9-.1-.7-.5-.7-.5l-1.8-.7-.6-1.3s.1-.5 0-.6a8.65 8.65 0 0 0 -1.6-.2l-1-.7-1.3 1.3a.3.3 0 0 1 0 .4zm30.4 22.3c0 30.1-24.7 54.5-55.3 54.5s-55.1-24.4-55.1-54.5 24.7-54.5 55.17-54.5 55.3 24.4 55.3 54.5zm-55-9.2-2.1.2c.2.1.3.2.2.4a5 5 0 0 0 .3 1.7l-3.4 1.8a2 2 0 0 1 -.9 1.3 2.65 2.65 0 0 0 -1.1 1c-.3.4-.2.8-.4 1.4s.2.8.1 1.1a11.06 11.06 0 0 1 -.5 1.7c-.2.3-.7-.1-1-.2s-.5-1.6-.7-1.8h-.1v.6a12.13 12.13 0 0 0 .2 1.9c.4-.1.3-.3.4-.3s.4.6.8.6.7-.2.7-1a.9.9 0 0 1 .9-.9h.2c.3 0 0 .6.2.8s.4 0 .4.5-1 1.1-1.1 1.9-.3 1-.7 1-.4-.9-.6-.4.6 1.3.6 1.3a2.68 2.68 0 0 0 .9-1.2c.2-.4.6-.3 1-.6a2.31 2.31 0 0 0 .4-1.8c-.1-.3.5-.2 2.5-.3s1.9.5 1.8 1.1.3-.1.3.5-.8 1.2-1 1.8.3.6 0 .8a1 1 0 0 0 -.4.5c-1.1 1.3-1.2.5-1.9.8a2.66 2.66 0 0 1 -1.5.2h-.2a9.31 9.31 0 0 0 5.6 1.8h1.4c.2-1.1.6-2.8 1.4-3.2s1.9.3 2.3 0a1.54 1.54 0 0 0 .7-.9 3.19 3.19 0 0 0 .2-1.7c-.2-.6-.6-.3-.8-.8s.8-.4.3-1-.6-1.5-.8-1.7-.4 0-.7-.3.1-.7.2-1.1.7-.5.6-.9-.5 0-.6-.5a2 2 0 0 1 .3-1.1s-1.1 0-1.2-.4a2.82 2.82 0 0 0 -3.57-1.81 3.25 3.25 0 0 0 -1.1-1.2s-.2-.9.1-1.3 1.2 0 1.3-.1.04-.09.04-.19zm32.1-20.8a45.23 45.23 0 0 1 4.7 5.9 4.6 4.6 0 0 1 1.2 1.5v.5l.4.6.2.2a4.31 4.31 0 0 1 1.1 1.8 2 2 0 0 1 .3 1.1 43.33 43.33 0 0 1 4.1 17h8a51.23 51.23 0 0 0 -14.43-34.1zm-29.53-13.6a45.81 45.81 0 0 1 18.1 5l1.5-.6h.2l1.4.3c.9.3.9 0 1.3.2s.4.7.9 1.1.4 0 .9.3a5.58 5.58 0 0 1 1.5 1.6c.2.4.5-.2.9 1.8l1.1 1.2 5-5a53.18 53.18 0 0 0 -34-13.8v6.4h.4c.6.3.8.3.8.9zm-32.8 11.4a44.65 44.65 0 0 1 28.6-11.5v-7.8a52 52 0 0 0 -34.07 13.8zm-14.3 30.8a43.51 43.51 0 0 1 12.2-28.7l-5.6-5.6a50.66 50.66 0 0 0 -14.5 34.3zm12.2 31.5-2.7-3.1c-.8-.3-.7-.5-1.5-1.2s-.4-1.4-.8-1.6-.2.3-.3.4a.91.91 0 0 1 -1 0 2.18 2.18 0 0 1 -1-.9 2.25 2.25 0 0 1 -.9-1.7c-.1-.2-.7 0-1-.1s-.3-.6-.6-.7a1.06 1.06 0 0 0 -.8-.1l-1.1-1.6s0 .8-.7.8-1.6-1.5-1.9-1.6-.5.3-.9 0a7.35 7.35 0 0 1 -.9-2 3.77 3.77 0 0 0 -.5-1.1 9.42 9.42 0 0 1 .2-2.9c.2-.5.4 0 .6-.8a.89.89 0 0 1 1-.8h.13a.58.58 0 0 1 .7.4c.2.3.7 0 1-.1s0-.5 0-.7.6-.1 1-.3 1-.3 1.1 0a38.27 38.27 0 0 1 -1.3-8.9h-8a51.21 51.21 0 0 0 14.6 34.2zm30.7 13.6a44.19 44.19 0 0 1 -28.5-11.5l-5.57 5.6a52.61 52.61 0 0 0 34.07 13.7zm31.5-11.6a46.88 46.88 0 0 1 -8.1 5.9v.2a18.63 18.63 0 0 1 -2.1 3.3c-.3.5-.5.2-1.1.7s-.3.9-1 1.2l-1.2.5a2.87 2.87 0 0 1 -4.06.14l-.2-.2c-.4-.3-1.1-.4-1.5-.9l-.3-.3a43.29 43.29 0 0 1 -8.7 1.2v7.66a53 53 0 0 0 34-13.8zm14.2-30.6a43.4 43.4 0 0 1 -12.1 28.5l5.6 5.6a51.32 51.32 0 0 0 14.5-34.1zm-18.3-3h4.53c-.1-1.2-.2-2.5-.4-3.7a3.47 3.47 0 0 1 -.7 1c-.5.5-1 .2-1.5.5s-.1.7-.2 1.1.5.2.2.7-.7.2-1 .2-.53-.2-.93.2zm-9-13.4 1.2 1.4a1 1 0 0 1 .9-.1l3 .5c.9.1 1.1 1.7 1.6 1.9s.4.4.4.9-.4.3-.3.7.4.7.7.3a2 2 0 0 1 1.9-.7c1.5.3 1 1.1 1.6 1.3s.4.3.6.6-.1.6-.4.7-.3.4-.3.6-.3.6-.4.8-.3.9 0 .9.6.3.8 0 1.4-1.5 1.4-2.1v-.2a25.33 25.33 0 0 0 -1.2-3.6l-.5-.6a17.68 17.68 0 0 1 -2.8-1.9c-.3-.5.1-.6.4-1a1.49 1.49 0 0 0 .4-1.4l-.6-.8-1.8-2.5-1.07-1.2zm-15.4-7.4a22.61 22.61 0 0 1 13.3 5.5l5.63-5.6a31 31 0 0 0 -18.8-7.7zm-16.4 5.3a23 23 0 0 1 13.4-5.4v-7.7a30.71 30.71 0 0 0 -18.9 7.6zm-3.67 4.1 1.6-2-5.5-5.5a29.41 29.41 0 0 0 -8 18.9h3.4a1.68 1.68 0 0 1 -.3-1c.1-.4-.2-1.8-.1-2a4.44 4.44 0 0 1 .6-.7c.2-.2 0-.6.1-.8l.7-.9c.3-.3.2-1.1.9-1.4s.9.1 1.4 0 .5-.7.5-.7-.2-.2.1-.7 2.1-.9 2.1-.9 0-.5 1.1-1.4a3.41 3.41 0 0 1 1.4-.9zm-4.1 11.5a3.37 3.37 0 0 1 .1-1l-.9-.2c-.8 0-1.6.5-1.5 1.2zm-5.3 3h-2.6a33 33 0 0 0 .8 5.5.58.58 0 0 0 .4-.7c0-.3.4-.2.6-.5s.1-.3 0-.4a1.44 1.44 0 0 1 -.6-.9c-.1-.5.3-.8.4-1.4s0-.7.2-1.1-.03 0 .77-.5zm11 13.4a22.55 22.55 0 0 1 -5.3-10.3h-.2c-.1-.4-.5-.5-.9-.4l-.2 1.7c0 .1-.1.9-.5.9a1.21 1.21 0 0 1 -.5-.5s-.6.1-.7-.1-.6-.7-.1-1.2.5.5.9 0-.5-2.7.2-2.7 1.1 1 1.2 1l.5-.2a7.57 7.57 0 0 1 -.1-1.5h-3.4c-.2.4-.1 1.6-.4 1.8s-1.6-.2-1.7.6.4.6.4 1.4-.4.3-.1 1.1 1.5 1 1.7 1.9a4.77 4.77 0 0 0 .6 1.5c.1.2-.5.7-.1 1.3a3.69 3.69 0 0 1 .7 2 7.61 7.61 0 0 0 .3 3c.4 1.6.4.6 1 1.6a4.37 4.37 0 0 1 .3 1.6l.9 1zm11.8 6.9a22.11 22.11 0 0 1 -9.7-4.8l-5.43 5.4a30.15 30.15 0 0 0 15.3 7.2l-1.57-.9a6.54 6.54 0 0 0 -1.2-1.7 2.19 2.19 0 0 1 -.7-1.7 1.05 1.05 0 0 0 .7-.6 4.76 4.76 0 0 1 1.2-2.2zm17.6-3.2-1 .6h.1c.6.2 3 .5 3.7 1.1a4.52 4.52 0 0 0 1.9.8l1.8-.2-1-1-1.3-.5c-1-.5-.8.2-1.7-.3a7.37 7.37 0 0 0 -2.5-.5zm17.3-11.9a30.56 30.56 0 0 0 .8-5.3h-4.6l.9.7c.5.5.3 1 .4 1.5s.5.4 1.2 1.1.7 1.4 1 1.8zm-11.8 6.9-.5.6h.1c.4-.3.7.2 1-.3s.3-.9.6-1.2a2.28 2.28 0 0 1 1.6-.4c.5.1.5-.2.8.7a3.19 3.19 0 0 1 .2 1.7c.2.2-.4.9-.5 2.3s-.4.3-.4 1.3v.1l.5.5.2-.4c.3-.8.8-1.2 1.1-.8a14 14 0 0 1 .5 1.9 31.28 31.28 0 0 0 6.2-10.9h-.2l-2.3.4h-1.8s-.5-.5-.7-.2-.4 1.2-1.2 1-.4-1-.6-1.1 0 .3-.3.8l-1.2 1.9c-.1.3-1.7.3-1.9.7a3.33 3.33 0 0 1 -1.23 1.4zm-6.6-4.5 2.2 2.2a2.79 2.79 0 0 0 -.3-1.3l-1-.5-.4-.3.2-.5h-.3zm-1.3 7.5 1-.6a.91.91 0 0 0 -.8.4zm-22.7-1.8a20.07 20.07 0 0 0 9.9 4.3v.4l.6.2a1.65 1.65 0 0 0 1.5-.5c.5-.5.4-.1.8-.2l.7-1.1c.4-.2.5-.7.7-.7v2.1a19.19 19.19 0 0 0 7.4-2.1c-.4 0-1-.7-1.1-.7s.2.8.2 1-1.1.6-1.3.4-1-.7-1-.6a6.68 6.68 0 0 1 -.6.8 5.26 5.26 0 0 1 -1.9-1.1c-.5-.6-.8-.3-.8-.3a4.68 4.68 0 0 1 -1 .5c-.3.1-.4.6-.7.7l-.7 1.1c-.4.1-.3-.3-.8.2a1.65 1.65 0 0 1 -1.5.5l-.6-.2v-.4a2.18 2.18 0 0 1 -.1-.8 4 4 0 0 1 .4-1.9c.2-.3.7-.1 1.1-.1v-4.3a12.44 12.44 0 0 1 -6.1-2.4zm.5-12.5v-.6c-.2.2-.9.1-.8.5s.27.1.77.1zm-7 2.5a20.47 20.47 0 0 0 4.3 7.9l5.2-5.2-.6-.8c-.5.2-.1.9-.4 1.1a1.56 1.56 0 0 0 -.6.8c-.1.3-1 1.1-1.4.7s-.1-2.4-.7-2.4-.1.2 0 .9-.4.4-.6.3l-1.1-.8c-.6-.5-.2-.9-.2-.9s-.5-.4-.7-.4-.1.4-.5.2-.4-.9-.4-.9a3.9 3.9 0 0 1 -1.5-.3zm17.7-24.2a19.72 19.72 0 0 0 -11.3 4.5l3 3c.5.1.4.5 1 .7s.5-.1 1-.2.2.3.3.5.5-.2.5-.2a1.39 1.39 0 0 0 .9 0c.6-.2.3-.6.5-1a1.82 1.82 0 0 0 .2-1c0-.4.6-.9.8-1.2s.5-.2.7.1-.2.5-.1.8 1-.1 2.4-.3zm13.7 4.2a20 20 0 0 0 -10.7-4.2v5.7a6.7 6.7 0 0 1 2 .6h.2a2.32 2.32 0 0 1 1.8-1.2c.3-.2.2-.4.5-.8s.9.1 1 .4a4 4 0 0 1 -.6 2.6 3.07 3.07 0 0 1 -1.5 1 12.65 12.65 0 0 1 2.5 1.5l.6-.5v-.3l.6-.4 2.5-2.5h-.2c-.3-.3-1.1-.3.4-1.3zm3.2 3-.5-.6-.6.5c.3.4.8.9.7.7s.17-.1.4-.6zm9.3-28.7c.4-.3.5.1.9.2s.4-.3 1 0a1.17 1.17 0 0 1 .8 1.1 4 4 0 0 0 .4 1c.1.3-.6.7-1.1.4a2.88 2.88 0 0 1 -.9-1l-1.2-.9a.61.61 0 0 1 .07-.8zm-22.43-4.9s.3-.4.6-.3h1l1.7-.6 1.4-.6.5-.3a5.09 5.09 0 0 1 3.93 1.2l.5.4-.2.5a9.08 9.08 0 0 1 -1.7.8 4.83 4.83 0 0 1 -1.2-.1l-1.1-.2-2.2.6a4.32 4.32 0 0 1 -1.6-.1l-.5-.2-1-.8-.1-.3m23.1 24.1 1.6 1.9v.3z"/><path d="m106 112.1c.3 0 4.3-.8 10.5-1.5s8.8-.4 13.3-1.5a16.45 16.45 0 0 0 8.8-5.3s.3-.1.2.2a23.47 23.47 0 0 1 -10.4 9.8 29.07 29.07 0 0 1 -16.7 2.3c-1.9-.4-4.6-1.2-7.4-2a37.75 37.75 0 0 0 -8.1-1.4s-.2-.3.4-.4a31.82 31.82 0 0 0 6.7-1.9c3.9-1.8 7.2-5.7 9.8-8.1s6.9-6.8 9.4-7.9c0 0 .2 0 0 .3a26.91 26.91 0 0 0 -3 5.2 22 22 0 0 1 -4.1 7.1c-1.9 2.1-4.4 3.9-9.4 5 0 0-.3.2 0 .1m44.5-27.2a24 24 0 0 1 -8 13.9c-5.4 4.9-9.9 6.7-12.5 7.3s-5.2.9-7.5 1.4a45.72 45.72 0 0 0 -6.4 1.7s-.2.1-.1-.1a16.69 16.69 0 0 0 3.6-3.9c2.5-3.3 4.7-11 4.7-11a47.36 47.36 0 0 1 2.6-6.6 53 53 0 0 1 6.3-9.2c.8-.6.4-.2.3 0a32.58 32.58 0 0 0 -1.5 4.4c-.9 4.3-1.1 8.7-1.7 10.4a22 22 0 0 1 -3.5 7.4 29.13 29.13 0 0 1 -4.3 4.3c-.4.2.1.2.1.2 1.1-.7 2.2-1.4 3.3-2.2a43.18 43.18 0 0 1 5.6-4c2.7-1.6 5.5-2.3 10.7-5.3a18.53 18.53 0 0 0 8.1-8.7s.1-.5.2 0zm-12.3-22.2a17.85 17.85 0 0 0 -.1 4c.2 1.7 2.1 8.7 2 12.4a18.52 18.52 0 0 1 -3.3 10.4h.2s4-5.6 5.9-8 5.9-6.1 7.8-8.3a18.82 18.82 0 0 0 4.3-9.5h.1a25 25 0 0 1 -1.6 12.4 25.87 25.87 0 0 1 -7.3 10 81.54 81.54 0 0 1 -10.3 7.1 33 33 0 0 0 -4.9 3.4s-.2-.1-.2-.2a38.27 38.27 0 0 0 2.7-6.6 77.47 77.47 0 0 0 1.2-9.6c.2-3.1 1.1-14.2 3.2-17.7zm-1-17.4c-.1-.2-.4-.5-.4 0a46.18 46.18 0 0 0 1.5 11.7c1 4 3.6 12.5 3.9 13.7a23.15 23.15 0 0 1 0 8.3s0 .5.3.2a63.87 63.87 0 0 1 4.2-6c1.4-1.6 4.8-5.8 5.7-8a30 30 0 0 0 2.8-13.9 27.82 27.82 0 0 0 -2.1-9.9s-.3-.2-.2.1a21 21 0 0 1 .1 5.6 23.82 23.82 0 0 1 -2.4 7.3c-1.4 3.1-2.8 6.7-3.2 7.9a57.66 57.66 0 0 0 -1.2 6.1 11.09 11.09 0 0 1 -1.2 3.5l-.2-.2a12.91 12.91 0 0 0 1-5.2 17.75 17.75 0 0 0 -2.4-9.3c-1.73-2.8-6.03-9.1-6.23-11.9zm7.4-23.7c-.3-.3-.2.1-.2.1a14.85 14.85 0 0 1 2.1 8.2c-.1 5.2-.9 5.5-1 10.1a88.68 88.68 0 0 0 .6 10.3h-.3a19.69 19.69 0 0 0 -1.6-6.3c-1.8-3.9-9.1-9.8-9.1-9.8s-2.5-2.4-2.7-3.7-.4 0-.4 0a41.35 41.35 0 0 0 2.7 8.4c2.1 4.6 6.8 9.2 8.2 12s2.2 3 3.3 8.2h.2a23.75 23.75 0 0 1 1.7-7c1.6-4.8 2-4.3 2.9-8.8a24.87 24.87 0 0 0 -.1-9.8c-.3-.9-1.9-7.2-6.3-11.9zm-.9 18.8a16.88 16.88 0 0 0 -2.7-3.9 42.64 42.64 0 0 0 -4.3-4.2c-2-1.6-4.2-3-5.6-4.3s-5.9-7.4-5.8-11.7a19.83 19.83 0 0 0 3.2 4.4c1.8 1.8 6.4 4.3 8.2 6a15.75 15.75 0 0 1 4.7 6.7h.3s-2-5.3-2.5-7.3a60.69 60.69 0 0 0 -2.1-8.4 10.54 10.54 0 0 0 -4.5-5.9l.2-.2s7.8 1.2 10.8 11.5c.9 3-.1 9.9.1 12.6s.3 4.5.3 4.5zm-26.23-35.7 5.1 1.8a20.31 20.31 0 0 1 7.9 4.9 22.5 22.5 0 0 1 5.4 10.5 8.52 8.52 0 0 0 1.1 2.6c.1 0-.1.2-.1.2s-6.8-5.4-8.9-7.7-4.4-6.4-6.2-8.1zm-87.8 112.6s6.7 7.7 16.7 7.8a23 23 0 0 0 13.4-4.3 96.79 96.79 0 0 1 8.7-5.6c2.5-1.2 6.2-.2 6.2-.2a35.71 35.71 0 0 0 -8.1 4.4 64 64 0 0 0 -9.4 7.9l3.4 2.9a43 43 0 0 1 7.2-7.5c4.7-4 7.4-5.5 10.3-6.7a52.09 52.09 0 0 1 17.3 14l3.4-2.9s-7.8-8-17.4-12.2c0 0 .9-.6 5-.1 1.8.2 3.5 1.6 5.5 3a56.87 56.87 0 0 0 8.5 5.2 25.53 25.53 0 0 0 9 1.9 22.51 22.51 0 0 0 16.9-8s0-.2-.2-.1c-3.6 1.8-5.6 3.2-11.6 3.1a32 32 0 0 1 -12.4-3.4c-5.1-2.4-8.6-3.9-14.7-4s-8.9 1-9.5 1.2-2.8-1.3-8.2-1.3a31.4 31.4 0 0 0 -13.4 3.1c-3.1 1.5-8.9 4.8-15.7 4.7a19.89 19.89 0 0 1 -10.57-3.1c-.23 0-.33.1-.33.2zm20.33-4.9c-.3 0-4.4-.8-10.6-1.5s-9-.3-13.5-1.4a16.64 16.64 0 0 1 -8.7-5.2s-.3-.2-.2.1a23.47 23.47 0 0 0 10.4 9.8c7.2 3.6 15.2 2.5 17.1 2.1s4.6-1.2 7.4-2a33.07 33.07 0 0 1 8.2-1.4s.2-.4-.4-.4a17.66 17.66 0 0 1 -6.7-1.9c-5.5-2.8-7.4-5.5-10-7.9s-7-6.7-9.5-7.8c0 0-.2 0 0 .3a26.91 26.91 0 0 1 3 5.2 21.47 21.47 0 0 0 4.1 7c1.9 2.1 4.6 3.9 9.6 5-.2-.2.07 0-.2 0zm-44.9-27a24.76 24.76 0 0 0 8.1 13.9c5.4 4.9 10.3 6.8 12.9 7.3l7.5 1.3a42.75 42.75 0 0 1 6.2 1.6s.2.1.1-.1a22.23 22.23 0 0 1 -3.5-4c-2.5-3.3-4.8-11-4.8-11-.7-1.9-1.4-3.8-2.3-5.7-1.3-2.7-5.9-9.3-6.7-9.9s-.4-.2-.3 0a21.92 21.92 0 0 1 1.5 4.3c.5 2.6 1.3 8.7 1.9 10.4a22.16 22.16 0 0 0 3.6 7.6 21.9 21.9 0 0 0 4.3 4.3c.4.2-.1.2-.1.2-1.2-.7-2.4-1.5-3.5-2.3a30 30 0 0 0 -4.6-3.4c-2.8-1.6-6.4-2.8-11.6-5.9s-7.3-6.4-8.4-8.7c-.03.1-.33-.4-.33.1zm11.9-22.1a18.77 18.77 0 0 1 .2 4.1c-.2 1.7-1.9 8.6-1.8 12.3a17.74 17.74 0 0 0 3.4 10.4h-.2s-4-5.6-5.8-8-6-6-7.8-8.3a20.17 20.17 0 0 1 -4.7-9.2h-.13a24.35 24.35 0 0 0 1.7 12.2 25.19 25.19 0 0 0 7.4 10 81.54 81.54 0 0 0 10.3 7.1 33 33 0 0 1 4.9 3.4s.2 0 .2-.1a38.27 38.27 0 0 1 -2.67-6.6 77.47 77.47 0 0 1 -1.2-9.6c-.2-3.1-1.4-14.3-3.4-17.8zm.9-17.7c.1-.2.4-.5.4 0a93.88 93.88 0 0 1 -1.3 11.7c-.9 4.1-3.6 12.5-3.9 13.7a28.85 28.85 0 0 0 0 8.3s0 .5-.3.2-2.8-4.3-4.2-5.8-4.9-5.8-5.8-8a33 33 0 0 1 -2.73-15.2c.5-6.8 2-8.5 2-8.5s.3-.2.2.1a19.54 19.54 0 0 0 -.1 5.4 23 23 0 0 0 2.8 8 46.86 46.86 0 0 1 3 7.3 37.37 37.37 0 0 1 1.3 5.8 11.09 11.09 0 0 0 1.2 3.5h.1a13.72 13.72 0 0 1 -1-5.3 16.79 16.79 0 0 1 2.43-9.3c1.47-2.9 5.77-9.1 5.87-11.9zm-7.8-23.4c.2-.3.4 0 .4 0s-2.1 2.6-2 7.8 1 6.1 1.1 10.8a85.15 85.15 0 0 1 -.6 10.1h.3a16 16 0 0 1 1.8-6.8c1.9-3.8 9.1-9.7 9.1-9.7s2.2-2.2 2.5-3.6.3.1.3.1a27.68 27.68 0 0 1 -2.4 8c-2.1 4.6-6.4 9.1-7.9 11.9s-2.6 3.7-3.6 8.9h-.3a29.23 29.23 0 0 0 -1.8-7.2c-1.6-4.8-2-4.1-2.9-8.5a28 28 0 0 1 .1-10.4 26.47 26.47 0 0 1 5.87-11.4zm1.17 18.8a15.92 15.92 0 0 1 2.8-4 44.76 44.76 0 0 1 4.4-4.2c1.9-1.6 4.2-3.1 5.6-4.4s5.5-7.4 5.4-11.7a16.15 16.15 0 0 1 -2.9 4.4c-1.8 1.8-6.4 4.5-8.3 6.2a16.28 16.28 0 0 0 -4.8 6.8h-.1s1.9-5.4 2.4-7.4a60.69 60.69 0 0 1 2.1-8.4 10.24 10.24 0 0 1 4.4-5.8c.1 0 0-.2 0-.2s-8 1.2-10.9 11.5c-.9 3 .3 10 .1 12.7s-.2 4.4-.2 4.5l.2-.1v-.2m25.4-35.5-4.5 1.6a20.07 20.07 0 0 0 -8.1 5 22.66 22.66 0 0 0 -5.4 10.7c-.8 3-.9 2.8-.9 2.8s6.9-5.4 8.9-7.7 4.4-6.6 6.13-8.3l3.9-4.1"/><path d="m453.7 14.46a4.48 4.48 0 0 0 -1.7-1.38 5.14 5.14 0 0 0 -2.18-.49 6.13 6.13 0 0 0 -2.5.49 5.74 5.74 0 0 0 -1.91 1.32 6.25 6.25 0 0 0 -1.23 2 6.81 6.81 0 0 0 0 4.71 5.79 5.79 0 0 0 1.2 1.89 5.52 5.52 0 0 0 1.91 1.29 6.57 6.57 0 0 0 2.55.48 5.12 5.12 0 0 0 2.46-.58 5.22 5.22 0 0 0 1.7-1.61l1.87 1.4a7.53 7.53 0 0 1 -.65.73 6.51 6.51 0 0 1 -1.22.94 8.09 8.09 0 0 1 -1.82.83 8 8 0 0 1 -2.48.36 8.31 8.31 0 0 1 -6.13-2.54 8.13 8.13 0 0 1 -1.57-2.6 7.58 7.58 0 0 1 -.58-2.9 8.83 8.83 0 0 1 .62-3.33 7.71 7.71 0 0 1 4.43-4.33 9.39 9.39 0 0 1 3.44-.62 8.35 8.35 0 0 1 3.16.62 5.85 5.85 0 0 1 2.54 1.91z"/><path d="m458 19.22a5.29 5.29 0 0 1 1.24-1.73 5.92 5.92 0 0 1 1.76-1.16 6.29 6.29 0 0 1 4.56 0 5.91 5.91 0 0 1 1.84 1.16 5.41 5.41 0 0 1 1.23 1.73 5.27 5.27 0 0 1 0 4.26 5.57 5.57 0 0 1 -1.23 1.73 5.94 5.94 0 0 1 -1.84 1.17 6.29 6.29 0 0 1 -4.56 0 6 6 0 0 1 -1.83-1.17 5.45 5.45 0 0 1 -1.17-6zm2 3.55a2.9 2.9 0 0 0 .71 1.11 3.23 3.23 0 0 0 1.13.73 4 4 0 0 0 1.49.26 4.05 4.05 0 0 0 1.5-.26 3.19 3.19 0 0 0 1.12-.73 2.92 2.92 0 0 0 .72-1.11 4.17 4.17 0 0 0 0-2.83 2.92 2.92 0 0 0 -.72-1.11 3.19 3.19 0 0 0 -1.12-.73 4.27 4.27 0 0 0 -1.5-.26 4 4 0 0 0 -1.49.26 3.23 3.23 0 0 0 -1.13.73 2.9 2.9 0 0 0 -.71 1.11 4.05 4.05 0 0 0 0 2.83z"/><path d="m481.35 26.81h-2.07v-1.91a3 3 0 0 1 -1.36 1.38 4.56 4.56 0 0 1 -2.23.53 4.76 4.76 0 0 1 -1.5-.24 3.31 3.31 0 0 1 -2.13-2 4.54 4.54 0 0 1 -.32-1.82v-6.85h2.07v6.25a3.58 3.58 0 0 0 .2 1.26 2.29 2.29 0 0 0 .56.85 2 2 0 0 0 .79.47 2.91 2.91 0 0 0 .93.14 3.26 3.26 0 0 0 1.2-.2 2.4 2.4 0 0 0 1-.63 3 3 0 0 0 .65-1.11 5 5 0 0 0 .23-1.58v-5.45h2.07z"/><path d="m484.48 15.9h2.07v1.91a3 3 0 0 1 1.45-1.38 4.67 4.67 0 0 1 2.23-.53 4.88 4.88 0 0 1 1.52.24 3.36 3.36 0 0 1 2.11 2 4.73 4.73 0 0 1 .33 1.82v6.85h-2.09v-6.25a3.37 3.37 0 0 0 -.21-1.26 2.4 2.4 0 0 0 -.55-.85 2.09 2.09 0 0 0 -.8-.47 2.91 2.91 0 0 0 -.93-.14 3.2 3.2 0 0 0 -1.19.2 2.5 2.5 0 0 0 -1 .63 3 3 0 0 0 -.64 1.11 4.69 4.69 0 0 0 -.23 1.58v5.45h-2.07z"/><path d="m503.11 17.7h-3v5.63a2.32 2.32 0 0 0 .17.78 1.22 1.22 0 0 0 .48.55 1.55 1.55 0 0 0 .89.21 6.47 6.47 0 0 0 .76-.05 2.9 2.9 0 0 0 .71-.21v1.84a2.67 2.67 0 0 1 -.95.28c-.3 0-.61.07-.91.08a4.19 4.19 0 0 1 -1.85-.33 2.19 2.19 0 0 1 -1-.83 2.71 2.71 0 0 1 -.36-1.17c0-.43-.06-.85-.06-1.27v-5.51h-2.39v-1.8h2.4v-3.05h2.07v3.05h3z"/><path d="m505.77 15.9h2.07v2h.05a2.88 2.88 0 0 1 .55-.79 4.24 4.24 0 0 1 .77-.63 3.84 3.84 0 0 1 .93-.4 3.77 3.77 0 0 1 1-.14h.92l-.1 2.37-.5-.11a2.94 2.94 0 0 0 -.51-.05 3.05 3.05 0 0 0 -2.32.83 3.5 3.5 0 0 0 -.81 2.56v5.31h-2.05z"/><path d="m513 15.9h2.39l3.25 8.37 3.08-8.37h2.28l-5.18 13c-.17.44-.36.86-.57 1.28a3.75 3.75 0 0 1 -.72 1 2.92 2.92 0 0 1 -1 .63 4.14 4.14 0 0 1 -1.44.23 7.26 7.26 0 0 1 -.93-.06 3.2 3.2 0 0 1 -.91-.23l.26-1.86a3.53 3.53 0 0 0 1.24.22 2.27 2.27 0 0 0 .82-.13 1.62 1.62 0 0 0 .57-.36 1.81 1.81 0 0 0 .4-.55q.16-.32.33-.72l.66-1.69z"/><path d="m442.36 40.82h5.64a7.09 7.09 0 0 1 2 .26 4.57 4.57 0 0 1 1.56.74 3.45 3.45 0 0 1 1 1.27 4.13 4.13 0 0 1 .38 1.8 3.26 3.26 0 0 1 -.79 2.29 4.44 4.44 0 0 1 -2 1.3v.05a3.21 3.21 0 0 1 1.38.38 3.93 3.93 0 0 1 1.12.87 4.28 4.28 0 0 1 1 2.8 4.1 4.1 0 0 1 -.45 1.94 4.29 4.29 0 0 1 -1.2 1.41 5.39 5.39 0 0 1 -1.82.88 7.71 7.71 0 0 1 -2.24.3h-5.59zm2.21 6.76h3a5.83 5.83 0 0 0 1.18-.12 2.62 2.62 0 0 0 1-.43 2.19 2.19 0 0 0 .66-.76 2.41 2.41 0 0 0 .24-1.12 2.31 2.31 0 0 0 -2.2-2.41 2.41 2.41 0 0 0 -.38 0h-3.5zm0 7.59h3.24a7 7 0 0 0 1.12-.1 3.68 3.68 0 0 0 1.15-.41 2.71 2.71 0 0 0 .9-.85 3 3 0 0 0 -.59-3.57 4.13 4.13 0 0 0 -2.55-.72h-3.27z"/><path d="m456.37 47.81a5.84 5.84 0 0 1 2-1.2 7 7 0 0 1 2.3-.41 6.45 6.45 0 0 1 2.09.3 4 4 0 0 1 1.41.78 2.92 2.92 0 0 1 .8 1.13 3.63 3.63 0 0 1 .26 1.34v6.43a3.91 3.91 0 0 0 .07.9h-1.84c0-.62-.07-1.23-.07-1.84a4 4 0 0 1 -1.64 1.42 5.43 5.43 0 0 1 -2.18.42 5 5 0 0 1 -1.44-.21 3.89 3.89 0 0 1 -1.2-.61 3.06 3.06 0 0 1 -.82-1 2.81 2.81 0 0 1 -.31-1.34 2.85 2.85 0 0 1 .47-1.7 3.54 3.54 0 0 1 1.28-1.12 6.78 6.78 0 0 1 1.91-.62 14.12 14.12 0 0 1 2.34-.19h1.51v-.41a1.7 1.7 0 0 0 -.16-.74 1.91 1.91 0 0 0 -.48-.68 2.23 2.23 0 0 0 -.8-.47 3.22 3.22 0 0 0 -1.15-.18 3.72 3.72 0 0 0 -1.05.12 4.66 4.66 0 0 0 -.82.28 3.46 3.46 0 0 0 -.66.41l-.58.43zm5.84 4a9.49 9.49 0 0 0 -1.5.08 6.2 6.2 0 0 0 -1.41.29 2.79 2.79 0 0 0 -1 .58 1.29 1.29 0 0 0 -.4 1 1.36 1.36 0 0 0 .63 1.26 3.3 3.3 0 0 0 1.71.38 3.48 3.48 0 0 0 1.46-.27 2.76 2.76 0 0 0 1-.69 2.66 2.66 0 0 0 .52-1 3.37 3.37 0 0 0 .16-1v-.64z"/><path d="m474.06 49.22a3.06 3.06 0 0 0 -.91-.77 3 3 0 0 0 -2.6 0 .93.93 0 0 0 -.54.85 1 1 0 0 0 .31.74 2.65 2.65 0 0 0 .73.46 5.58 5.58 0 0 0 .91.26l.83.15a9.11 9.11 0 0 1 1.26.37 3.49 3.49 0 0 1 1 .55 2.27 2.27 0 0 1 .66.84 2.77 2.77 0 0 1 .29 1.23 2.58 2.58 0 0 1 -.4 1.48 3 3 0 0 1 -1 1 4.21 4.21 0 0 1 -1.41.56 7.14 7.14 0 0 1 -1.6.18 6.26 6.26 0 0 1 -2.38-.42 4.24 4.24 0 0 1 -1.83-1.52l1.56-1.28a7.5 7.5 0 0 0 1.13.89 2.81 2.81 0 0 0 1.52.39 4.22 4.22 0 0 0 .79-.07 2.35 2.35 0 0 0 .72-.24 1.64 1.64 0 0 0 .5-.41 1 1 0 0 0 .2-.58 1 1 0 0 0 -.29-.71 2.11 2.11 0 0 0 -.69-.45 8.34 8.34 0 0 0 -.85-.26l-.79-.16c-.45-.1-.87-.22-1.27-.35a4.24 4.24 0 0 1 -1.06-.54 2.33 2.33 0 0 1 -1-2 2.64 2.64 0 0 1 .36-1.4 3 3 0 0 1 .94-1 4.64 4.64 0 0 1 1.33-.58 5.91 5.91 0 0 1 1.51-.2 5.49 5.49 0 0 1 2.12.42 3.31 3.31 0 0 1 1.6 1.35z"/><path d="m480 52.41a2.25 2.25 0 0 0 .31 1.19 2.83 2.83 0 0 0 .81.91 3.54 3.54 0 0 0 1.18.59 4.62 4.62 0 0 0 1.38.21 3.12 3.12 0 0 0 1.68-.45 5.46 5.46 0 0 0 1.31-1.18l1.56 1.19a5.76 5.76 0 0 1 -4.83 2.24 6.17 6.17 0 0 1 -2.33-.42 5.06 5.06 0 0 1 -1.77-1.15 5 5 0 0 1 -1.12-1.73 5.7 5.7 0 0 1 -.39-2.16 5.46 5.46 0 0 1 .42-2.15 5.31 5.31 0 0 1 3-2.88 6 6 0 0 1 2.25-.42 5.6 5.6 0 0 1 2.45.49 4.66 4.66 0 0 1 1.65 1.31 4.93 4.93 0 0 1 .93 1.77 7.11 7.11 0 0 1 .29 2v.7zm6.53-1.65a3.79 3.79 0 0 0 -.22-1.16 2.6 2.6 0 0 0 -.59-.91 2.87 2.87 0 0 0 -1-.61 3.75 3.75 0 0 0 -1.37-.22 3.65 3.65 0 0 0 -1.39.26 3.28 3.28 0 0 0 -1.07.69 3.14 3.14 0 0 0 -.68.93 2.45 2.45 0 0 0 -.24 1z"/><path d="m502.19 57.11h-2.07v-1.84a4 4 0 0 1 -1.64 1.35 5.2 5.2 0 0 1 -2.16.49 6 6 0 0 1 -2.28-.42 4.92 4.92 0 0 1 -1.75-1.16 5.41 5.41 0 0 1 -1.12-1.74 6.09 6.09 0 0 1 0-4.29 5 5 0 0 1 2.8-2.88 6 6 0 0 1 2.28-.42 5.1 5.1 0 0 1 2.21.5 3.86 3.86 0 0 1 1.61 1.3v-8.28h2.07zm-4.19-2.2a3.23 3.23 0 0 0 1.13-.73 2.9 2.9 0 0 0 .71-1.11 4.05 4.05 0 0 0 0-2.83 2.9 2.9 0 0 0 -.71-1.11 3.23 3.23 0 0 0 -1.13-.73 4 4 0 0 0 -1.49-.26 4.27 4.27 0 0 0 -1.5.26 3.19 3.19 0 0 0 -1.12.73 2.92 2.92 0 0 0 -.72 1.11 4.17 4.17 0 0 0 0 2.83 2.92 2.92 0 0 0 .72 1.11 3.19 3.19 0 0 0 1.12.73 4.05 4.05 0 0 0 1.5.26 4 4 0 0 0 1.49-.26z"/><path d="m442.36 71.12h5.73a6.67 6.67 0 0 1 2.58.43 4.32 4.32 0 0 1 1.59 1.08 3.51 3.51 0 0 1 .82 1.47 6 6 0 0 1 .23 1.58 6 6 0 0 1 -.23 1.57 3.51 3.51 0 0 1 -.82 1.47 4.32 4.32 0 0 1 -1.59 1.08 6.67 6.67 0 0 1 -2.58.43h-3.52v7.18h-2.21zm2.21 7.18h2.9a8 8 0 0 0 1.29-.11 3.38 3.38 0 0 0 1.11-.37 2.19 2.19 0 0 0 .8-.8 2.59 2.59 0 0 0 .3-1.34 2.65 2.65 0 0 0 -.3-1.35 2.17 2.17 0 0 0 -.8-.79 3.32 3.32 0 0 0 -1.11-.38 8 8 0 0 0 -1.29-.11h-2.9z"/><path d="m455.39 79.82a5.41 5.41 0 0 1 1.23-1.73 5.91 5.91 0 0 1 1.84-1.16 6.29 6.29 0 0 1 4.56 0 5.91 5.91 0 0 1 1.84 1.16 5.41 5.41 0 0 1 1.23 1.73 5.23 5.23 0 0 1 .45 2.14 5.18 5.18 0 0 1 -.45 2.12 5.57 5.57 0 0 1 -1.23 1.73 6 6 0 0 1 -1.86 1.19 6.29 6.29 0 0 1 -4.56 0 5.94 5.94 0 0 1 -1.84-1.17 5.57 5.57 0 0 1 -1.23-1.73 5.05 5.05 0 0 1 -.37-2.1 5.11 5.11 0 0 1 .39-2.18zm2 3.55a2.92 2.92 0 0 0 .72 1.11 3.19 3.19 0 0 0 1.12.73 4.05 4.05 0 0 0 1.5.26 4 4 0 0 0 1.49-.26 3.23 3.23 0 0 0 1.13-.73 2.9 2.9 0 0 0 .71-1.11 4.05 4.05 0 0 0 0-2.83 2.9 2.9 0 0 0 -.71-1.11 3.23 3.23 0 0 0 -1.13-.73 4 4 0 0 0 -1.49-.26 4.27 4.27 0 0 0 -1.5.26 3.19 3.19 0 0 0 -1.12.73 2.92 2.92 0 0 0 -.72 1.11 4.17 4.17 0 0 0 0 2.83z"/><path d="m469.05 79.82a5.41 5.41 0 0 1 1.23-1.73 6.17 6.17 0 0 1 6.4-1.16 5.91 5.91 0 0 1 1.84 1.16 5.41 5.41 0 0 1 1.23 1.73 5.23 5.23 0 0 1 .45 2.18 5.18 5.18 0 0 1 -.45 2.12 5.57 5.57 0 0 1 -1.23 1.73 6 6 0 0 1 -8.24 0 5.57 5.57 0 0 1 -1.23-1.73 5.33 5.33 0 0 1 -.44-2.12 5.19 5.19 0 0 1 .44-2.18zm2 3.55a2.9 2.9 0 0 0 .71 1.11 3.23 3.23 0 0 0 1.13.73 4 4 0 0 0 1.49.26 4.05 4.05 0 0 0 1.5-.26 3.19 3.19 0 0 0 1.12-.73 2.92 2.92 0 0 0 .72-1.11 4.17 4.17 0 0 0 0-2.83 2.92 2.92 0 0 0 -.72-1.11 3.19 3.19 0 0 0 -1.12-.73 4.27 4.27 0 0 0 -1.5-.26 4 4 0 0 0 -1.49.26 3.23 3.23 0 0 0 -1.13.73 2.9 2.9 0 0 0 -.71 1.11 4.05 4.05 0 0 0 0 2.83z"/><path d="m483 70h2v17.41h-2z"/><path d="m489.88 82.71a2.25 2.25 0 0 0 .31 1.19 3 3 0 0 0 .82.91 3.69 3.69 0 0 0 1.17.59 4.62 4.62 0 0 0 1.38.21 3.12 3.12 0 0 0 1.68-.45 5.18 5.18 0 0 0 1.31-1.16l1.56 1.19a5.76 5.76 0 0 1 -4.83 2.24 6.31 6.31 0 0 1 -2.28-.43 5 5 0 0 1 -2.89-2.88 5.67 5.67 0 0 1 -.41-2.12 5.34 5.34 0 0 1 .43-2.16 5.24 5.24 0 0 1 1.17-1.73 5.34 5.34 0 0 1 1.75-1.11 5.85 5.85 0 0 1 2.26-.42 5.74 5.74 0 0 1 2.45.49 4.75 4.75 0 0 1 2.57 3 7.11 7.11 0 0 1 .29 2v.7zm6.53-1.65a3.51 3.51 0 0 0 -.22-1.16 2.44 2.44 0 0 0 -.58-.91 2.87 2.87 0 0 0 -1-.61 3.75 3.75 0 0 0 -1.37-.22 3.65 3.65 0 0 0 -1.39.26 3.45 3.45 0 0 0 -1.07.69 3.28 3.28 0 0 0 -.68.93 2.45 2.45 0 0 0 -.24 1z"/><path d="m512 87.41h-2v-1.84h-.05a3.92 3.92 0 0 1 -1.64 1.35 5 5 0 0 1 -2.15.49 6 6 0 0 1 -2.29-.42 5.15 5.15 0 0 1 -1.75-1.16 5.25 5.25 0 0 1 -1.12-1.74 6.09 6.09 0 0 1 0-4.29 4.94 4.94 0 0 1 1.11-1.73 5.12 5.12 0 0 1 1.75-1.15 6 6 0 0 1 2.29-.42 5.14 5.14 0 0 1 2.21.5 3.74 3.74 0 0 1 1.58 1.34h.06v-8.34h2zm-4.16-2.2a3.19 3.19 0 0 0 1.12-.73 2.92 2.92 0 0 0 .72-1.11 4.17 4.17 0 0 0 0-2.83 2.92 2.92 0 0 0 -.72-1.11 3.19 3.19 0 0 0 -1.12-.73 4.27 4.27 0 0 0 -1.5-.26 4 4 0 0 0 -1.49.26 3.23 3.23 0 0 0 -1.13.73 2.9 2.9 0 0 0 -.71 1.11 4.05 4.05 0 0 0 0 2.83 2.9 2.9 0 0 0 .71 1.11 3.23 3.23 0 0 0 1.13.73 4 4 0 0 0 1.49.26 4.05 4.05 0 0 0 1.53-.26z"/><path d="m442.36 101.42h10.24v2.07h-8v5.11h7.48v2.07h-7.51v7h-2.21z"/><path d="m464.7 117.71h-2.07v-1.91h-.05a3 3 0 0 1 -1.36 1.38 4.67 4.67 0 0 1 -2.23.53 4.87 4.87 0 0 1 -1.51-.24 3.39 3.39 0 0 1 -2.12-2 4.56 4.56 0 0 1 -.32-1.83v-6.84h2.07v6.25a3.36 3.36 0 0 0 .2 1.26 2.4 2.4 0 0 0 .55.85 2.09 2.09 0 0 0 .8.47 2.92 2.92 0 0 0 .93.15 3.48 3.48 0 0 0 1.2-.21 2.5 2.5 0 0 0 1-.63 3 3 0 0 0 .64-1.11 4.7 4.7 0 0 0 .24-1.58v-5.45h2.07z"/><path d="m467.82 106.8h2.07v1.91h.11a3 3 0 0 1 1.36-1.38 4.56 4.56 0 0 1 2.23-.53 4.88 4.88 0 0 1 1.52.24 3.36 3.36 0 0 1 2.11 2 4.56 4.56 0 0 1 .32 1.83v6.84h-2.07v-6.25a3.36 3.36 0 0 0 -.2-1.26 2.29 2.29 0 0 0 -.56-.85 1.87 1.87 0 0 0 -.79-.47 3.22 3.22 0 0 0 -.93-.14 3.26 3.26 0 0 0 -1.2.2 2.4 2.4 0 0 0 -1 .63 3 3 0 0 0 -.65 1.11 5 5 0 0 0 -.23 1.58v5.45h-2.07z"/><path d="m491.54 117.71h-2.07v-1.84h-.05a3.92 3.92 0 0 1 -1.64 1.35 5 5 0 0 1 -2.15.49 6 6 0 0 1 -2.29-.42 4.92 4.92 0 0 1 -1.75-1.16 5.41 5.41 0 0 1 -1.12-1.74 6.09 6.09 0 0 1 0-4.29 5.06 5.06 0 0 1 1.12-1.73 5.12 5.12 0 0 1 1.75-1.15 6 6 0 0 1 2.29-.42 5.09 5.09 0 0 1 2.2.5 3.73 3.73 0 0 1 1.59 1.35h.05v-8.33h2.07zm-4.17-2.2a3.23 3.23 0 0 0 1.13-.73 2.9 2.9 0 0 0 .71-1.11 4.05 4.05 0 0 0 0-2.83 2.9 2.9 0 0 0 -.71-1.11 3.23 3.23 0 0 0 -1.13-.73 4 4 0 0 0 -1.49-.26 4.27 4.27 0 0 0 -1.5.26 3.19 3.19 0 0 0 -1.12.73 2.92 2.92 0 0 0 -.72 1.11 4.17 4.17 0 0 0 0 2.83 2.92 2.92 0 0 0 .72 1.11 3.19 3.19 0 0 0 1.12.73 3.87 3.87 0 0 0 1.5.27 3.79 3.79 0 0 0 1.49-.27z"/><path d="m500.46 109.82a3.06 3.06 0 0 0 -.91-.77 3 3 0 0 0 -2.6 0 .93.93 0 0 0 -.54.85 1 1 0 0 0 .31.74 2.7 2.7 0 0 0 .74.46 5.58 5.58 0 0 0 .91.26l.83.15a9.39 9.39 0 0 1 1.25.37 3.49 3.49 0 0 1 1 .55 2.19 2.19 0 0 1 .67.84 2.9 2.9 0 0 1 .24 1.23 2.72 2.72 0 0 1 -.36 1.5 3 3 0 0 1 -1 1 4.34 4.34 0 0 1 -1.42.56 7.14 7.14 0 0 1 -1.6.18 6.26 6.26 0 0 1 -2.38-.42 4.34 4.34 0 0 1 -1.83-1.51l1.57-1.29a6.07 6.07 0 0 0 1.13.89 2.85 2.85 0 0 0 1.51.4 4.26 4.26 0 0 0 .8-.08 2.21 2.21 0 0 0 .71-.24 1.57 1.57 0 0 0 .51-.41.89.89 0 0 0 .19-.57.94.94 0 0 0 -.29-.72 1.81 1.81 0 0 0 -.69-.44 4.92 4.92 0 0 0 -.85-.26l-.79-.17c-.44-.1-.87-.22-1.27-.35a4.18 4.18 0 0 1 -1-.54 2.39 2.39 0 0 1 -.74-.81 2.48 2.48 0 0 1 -.28-1.22 2.64 2.64 0 0 1 .36-1.4 3.21 3.21 0 0 1 .94-1 4.69 4.69 0 0 1 1.34-.58 5.91 5.91 0 0 1 1.51-.2 5.48 5.48 0 0 1 2.11.42 3.39 3.39 0 0 1 1.61 1.38z"/><path d="m224.17 67.8a19.4 19.4 0 0 0 -7.1-5.6 20.93 20.93 0 0 0 -8.8-2 25 25 0 0 0 -10.1 2 23.69 23.69 0 0 0 -12.7 13.4 27.57 27.57 0 0 0 -1.8 9.8 23.73 23.73 0 0 0 1.7 9.2 22.53 22.53 0 0 0 12.63 12.9 26.12 26.12 0 0 0 10.3 1.9 19.73 19.73 0 0 0 9.9-2.3 21.69 21.69 0 0 0 7.3-6.5l7.5 5.7a35.64 35.64 0 0 1 -2.6 2.9 22.28 22.28 0 0 1 -4.9 3.8 32.93 32.93 0 0 1 -7.4 3.3 30.52 30.52 0 0 1 -10 1.4 33.7 33.7 0 0 1 -24.8-10.3 32.3 32.3 0 0 1 -9-22.1 34.86 34.86 0 0 1 2.5-13.5 30.34 30.34 0 0 1 7.1-10.6 33.38 33.38 0 0 1 10.8-7 38.8 38.8 0 0 1 13.9-2.5 35.26 35.26 0 0 1 12.8 2.5 24.63 24.63 0 0 1 10.3 7.7z"/><path d="m243.77 51.9h22.9a30.83 30.83 0 0 1 8 1 18.49 18.49 0 0 1 6.3 3 14.72 14.72 0 0 1 4.2 5.1 15.45 15.45 0 0 1 1.5 7.3 13.71 13.71 0 0 1 -3.2 9.3 18 18 0 0 1 -8.2 5.3v.1a13.44 13.44 0 0 1 5.6 1.6 16.75 16.75 0 0 1 3 27.5c-.36.31-.74.61-1.12.9a22 22 0 0 1 -7.4 3.5 35 35 0 0 1 -9.1 1.2h-22.6v-65.8zm9 27.3h12.23a24 24 0 0 0 4.7-.5 11.15 11.15 0 0 0 3.9-1.7 8.66 8.66 0 0 0 2.6-3.1 10.32 10.32 0 0 0 1-4.6 10.58 10.58 0 0 0 -2.5-6.8c-1.7-1.9-4.3-2.9-7.9-2.9h-14.1zm0 30.7h13.1a33.89 33.89 0 0 0 4.5-.4 12.66 12.66 0 0 0 4.6-1.7 9.87 9.87 0 0 0 3.6-3.4 10.19 10.19 0 0 0 1.4-5.6c0-3.9-1.3-6.8-3.8-8.8s-6-2.9-10.3-3h-13.2z"/><path d="m302.47 51.9h23.2a28 28 0 0 1 10.4 1.7 18.27 18.27 0 0 1 6.5 4.4 15.32 15.32 0 0 1 3.3 6 22.85 22.85 0 0 1 0 12.7 14.18 14.18 0 0 1 -3.3 6 18.06 18.06 0 0 1 -6.5 4.3 26.36 26.36 0 0 1 -10.4 1.7h-14.2v29h-8.9v-65.8zm8.9 29h11.7a30.21 30.21 0 0 0 5.2-.4 14.05 14.05 0 0 0 4.5-1.5 8.92 8.92 0 0 0 3.2-3.2 10.44 10.44 0 0 0 1.2-5.4 10 10 0 0 0 -1.17-5.4 8.92 8.92 0 0 0 -3.2-3.2 12.22 12.22 0 0 0 -4.5-1.5 30.21 30.21 0 0 0 -5.2-.4h-11.7z"/><path d="m357.57 51.9h41.43v8.4h-32.5v20.7h30.2v8.4h-30.2v28.5h-8.9z"/><path d="m545.17 9.6h37.6a47.17 47.17 0 0 1 13 1.7 31.28 31.28 0 0 1 10.4 5 23.42 23.42 0 0 1 6.9 8.4 26.44 26.44 0 0 1 2.5 12c0 6.2-1.7 11.3-5.2 15.2a30.31 30.31 0 0 1 -13.37 8.6v.3a22.92 22.92 0 0 1 9.2 2.5 24.57 24.57 0 0 1 7.4 5.8 28 28 0 0 1 6.8 18.5 26.29 26.29 0 0 1 -3 12.9 28.2 28.2 0 0 1 -8.1 9.4 35.72 35.72 0 0 1 -12.1 5.8 53.59 53.59 0 0 1 -14.9 2h-37.1zm14.7 44.9h20a41.7 41.7 0 0 0 7.8-.8 18.52 18.52 0 0 0 6.4-2.8 13.82 13.82 0 0 0 4.3-5 16.07 16.07 0 0 0 1.6-7.5 16.07 16.07 0 0 0 -4.1-11.1c-2.7-3.2-7.1-4.7-13-4.7h-23zm0 50.4h21.5a36.1 36.1 0 0 0 7.4-.7 22.27 22.27 0 0 0 7.6-2.8 18.07 18.07 0 0 0 6-5.7 16.74 16.74 0 0 0 2.4-9.2q0-9.6-6.3-14.4c-4.2-3.2-9.8-4.8-17-4.8h-21.7z"/><path d="m641.37 9.6h14.63v108.1h-14.7v-108.1z"/></g></svg>